%TF.GenerationSoftware,KiCad,Pcbnew,(6.0.10-0)*%
%TF.CreationDate,2023-01-22T14:07:56+10:30*%
%TF.ProjectId,16p,3136702e-6b69-4636-9164-5f7063625858,rev?*%
%TF.SameCoordinates,Original*%
%TF.FileFunction,Copper,L1,Top*%
%TF.FilePolarity,Positive*%
%FSLAX46Y46*%
G04 Gerber Fmt 4.6, Leading zero omitted, Abs format (unit mm)*
G04 Created by KiCad (PCBNEW (6.0.10-0)) date 2023-01-22 14:07:56*
%MOMM*%
%LPD*%
G01*
G04 APERTURE LIST*
G04 Aperture macros list*
%AMRoundRect*
0 Rectangle with rounded corners*
0 $1 Rounding radius*
0 $2 $3 $4 $5 $6 $7 $8 $9 X,Y pos of 4 corners*
0 Add a 4 corners polygon primitive as box body*
4,1,4,$2,$3,$4,$5,$6,$7,$8,$9,$2,$3,0*
0 Add four circle primitives for the rounded corners*
1,1,$1+$1,$2,$3*
1,1,$1+$1,$4,$5*
1,1,$1+$1,$6,$7*
1,1,$1+$1,$8,$9*
0 Add four rect primitives between the rounded corners*
20,1,$1+$1,$2,$3,$4,$5,0*
20,1,$1+$1,$4,$5,$6,$7,0*
20,1,$1+$1,$6,$7,$8,$9,0*
20,1,$1+$1,$8,$9,$2,$3,0*%
G04 Aperture macros list end*
%TA.AperFunction,ComponentPad*%
%ADD10R,1.800000X1.800000*%
%TD*%
%TA.AperFunction,ComponentPad*%
%ADD11C,1.800000*%
%TD*%
%TA.AperFunction,ComponentPad*%
%ADD12RoundRect,0.750000X0.750000X-1.250000X0.750000X1.250000X-0.750000X1.250000X-0.750000X-1.250000X0*%
%TD*%
%TA.AperFunction,ComponentPad*%
%ADD13R,1.600000X1.600000*%
%TD*%
%TA.AperFunction,ComponentPad*%
%ADD14C,1.600000*%
%TD*%
%TA.AperFunction,ComponentPad*%
%ADD15C,1.900000*%
%TD*%
%TA.AperFunction,SMDPad,CuDef*%
%ADD16R,2.500000X1.600000*%
%TD*%
%TA.AperFunction,ViaPad*%
%ADD17C,0.800000*%
%TD*%
%TA.AperFunction,Conductor*%
%ADD18C,0.250000*%
%TD*%
G04 APERTURE END LIST*
D10*
%TO.P,RV13,1,1*%
%TO.N,+3V3*%
X121774178Y-13851846D03*
D11*
%TO.P,RV13,2,2*%
%TO.N,/POT5*%
X124274178Y-13851846D03*
%TO.P,RV13,3,3*%
%TO.N,GND*%
X126774178Y-13851846D03*
D12*
%TO.P,RV13,MP*%
X119874178Y-6851846D03*
X128674178Y-6851846D03*
%TD*%
D10*
%TO.P,RV14,1,1*%
%TO.N,+3V3*%
X121774178Y-43851846D03*
D11*
%TO.P,RV14,2,2*%
%TO.N,/POT4*%
X124274178Y-43851846D03*
%TO.P,RV14,3,3*%
%TO.N,GND*%
X126774178Y-43851846D03*
D12*
%TO.P,RV14,MP*%
X119874178Y-36851846D03*
X128674178Y-36851846D03*
%TD*%
D10*
%TO.P,RV9,1,1*%
%TO.N,+3V3*%
X91774178Y-13851846D03*
D11*
%TO.P,RV9,2,2*%
%TO.N,/POT6*%
X94274178Y-13851846D03*
%TO.P,RV9,3,3*%
%TO.N,GND*%
X96774178Y-13851846D03*
D12*
%TO.P,RV9,MP*%
X98674178Y-6851846D03*
X89874178Y-6851846D03*
%TD*%
D10*
%TO.P,RV2,1,1*%
%TO.N,+3V3*%
X31774178Y-43851846D03*
D11*
%TO.P,RV2,2,2*%
%TO.N,/POT1*%
X34274178Y-43851846D03*
%TO.P,RV2,3,3*%
%TO.N,GND*%
X36774178Y-43851846D03*
D12*
%TO.P,RV2,MP*%
X29874178Y-36851846D03*
X38674178Y-36851846D03*
%TD*%
D10*
%TO.P,RV6,1,1*%
%TO.N,+3V3*%
X61774178Y-43851846D03*
D11*
%TO.P,RV6,2,2*%
%TO.N,/POT2*%
X64274178Y-43851846D03*
%TO.P,RV6,3,3*%
%TO.N,GND*%
X66774178Y-43851846D03*
D12*
%TO.P,RV6,MP*%
X59874178Y-36851846D03*
X68674178Y-36851846D03*
%TD*%
D10*
%TO.P,RV5,1,1*%
%TO.N,+3V3*%
X61774178Y-13851846D03*
D11*
%TO.P,RV5,2,2*%
%TO.N,/POT7*%
X64274178Y-13851846D03*
%TO.P,RV5,3,3*%
%TO.N,GND*%
X66774178Y-13851846D03*
D12*
%TO.P,RV5,MP*%
X59874178Y-6851846D03*
X68674178Y-6851846D03*
%TD*%
D13*
%TO.P,U3,1,GND*%
%TO.N,GND*%
X10160000Y-1270000D03*
D14*
%TO.P,U3,2,0_RX1_MOSI1_Touch*%
%TO.N,unconnected-(U3-Pad2)*%
X10160000Y-3810000D03*
%TO.P,U3,3,1_TX1_MISO1_Touch*%
%TO.N,unconnected-(U3-Pad3)*%
X10160000Y-6350000D03*
%TO.P,U3,4,2*%
%TO.N,unconnected-(U3-Pad4)*%
X10160000Y-8890000D03*
%TO.P,U3,5,3_RX1_PWM_Touch*%
%TO.N,unconnected-(U3-Pad5)*%
X10160000Y-11430000D03*
%TO.P,U3,6,4_TX1_PWM_Touch*%
%TO.N,unconnected-(U3-Pad6)*%
X10160000Y-13970000D03*
%TO.P,U3,7,5_TX1_MISO1*%
%TO.N,unconnected-(U3-Pad7)*%
X10160000Y-16510000D03*
%TO.P,U3,8,6_RX3_CS1_PWM*%
%TO.N,unconnected-(U3-Pad8)*%
X10160000Y-19050000D03*
%TO.P,U3,9,7_RX3_MOSI0*%
%TO.N,unconnected-(U3-Pad9)*%
X10160000Y-21590000D03*
%TO.P,U3,10,8_TX3_MISO0*%
%TO.N,unconnected-(U3-Pad10)*%
X10160000Y-24130000D03*
%TO.P,U3,11,9_RX2_PWM*%
%TO.N,unconnected-(U3-Pad11)*%
X10160000Y-26670000D03*
%TO.P,U3,12,10_TX2_CS0_PWM*%
%TO.N,unconnected-(U3-Pad12)*%
X10160000Y-29210000D03*
%TO.P,U3,13,11_MOSI0*%
%TO.N,unconnected-(U3-Pad13)*%
X10160000Y-31750000D03*
%TO.P,U3,14,12_MISO0*%
%TO.N,unconnected-(U3-Pad14)*%
X10160000Y-34290000D03*
%TO.P,U3,15,17_Vin*%
%TO.N,unconnected-(U3-Pad15)*%
X12700000Y-34290000D03*
%TO.P,U3,16,3.3V*%
%TO.N,+3V3*%
X15240000Y-34290000D03*
%TO.P,U3,17,GND*%
%TO.N,GND*%
X17780000Y-34290000D03*
%TO.P,U3,18,Program*%
%TO.N,unconnected-(U3-Pad18)*%
X20320000Y-34290000D03*
%TO.P,U3,19,26_A12/DAC*%
%TO.N,unconnected-(U3-Pad19)*%
X22860000Y-34290000D03*
%TO.P,U3,20,13_LED_SCK0*%
%TO.N,unconnected-(U3-Pad20)*%
X25400000Y-34290000D03*
%TO.P,U3,21,14_A0_SCK0*%
%TO.N,/POT1*%
X25400000Y-31750000D03*
%TO.P,U3,22,15_A1_Touch*%
%TO.N,/POT2*%
X25400000Y-29210000D03*
%TO.P,U3,23,16_A2_SCL0_PWM_Touch*%
%TO.N,/POT3*%
X25400000Y-26670000D03*
%TO.P,U3,24,17_A3_SDA0_PWM_Touch*%
%TO.N,/POT4*%
X25400000Y-24130000D03*
%TO.P,U3,25,18_A4_SDA0_Touch*%
%TO.N,/POT5*%
X25400000Y-21590000D03*
%TO.P,U3,26,19_A5_SCL0_Touch*%
%TO.N,/POT6*%
X25400000Y-19050000D03*
%TO.P,U3,27,20_A6_SCK1_PWM_TX3*%
%TO.N,/POT7*%
X25400000Y-16510000D03*
%TO.P,U3,28,21_A7_MOSI1_RX1*%
%TO.N,/POT8*%
X25400000Y-13970000D03*
%TO.P,U3,29,22_A8_SCL1_PWM_Touch*%
%TO.N,unconnected-(U3-Pad29)*%
X25400000Y-11430000D03*
%TO.P,U3,30,23_A9_SDA1_PWM_Touch*%
%TO.N,unconnected-(U3-Pad30)*%
X25400000Y-8890000D03*
%TO.P,U3,31,3.3V*%
%TO.N,+3V3*%
X25400000Y-6350000D03*
%TO.P,U3,32,GND*%
%TO.N,GND*%
X25400000Y-3810000D03*
%TO.P,U3,33,Vin*%
%TO.N,unconnected-(U3-Pad33)*%
X25400000Y-1270000D03*
%TO.P,U3,34,VUSB*%
%TO.N,unconnected-(U3-Pad34)*%
X22860000Y-3810000D03*
%TO.P,U3,35,AREF*%
%TO.N,unconnected-(U3-Pad35)*%
X22860000Y-8890000D03*
%TO.P,U3,36,24_A10*%
%TO.N,unconnected-(U3-Pad36)*%
X22860000Y-11430000D03*
%TO.P,U3,37,25_A11*%
%TO.N,unconnected-(U3-Pad37)*%
X22860000Y-13970000D03*
D15*
%TO.P,U3,38*%
%TO.N,N/C*%
X17780000Y-11430000D03*
X17780000Y-7620000D03*
%TD*%
D16*
%TO.P,C1,1*%
%TO.N,+3V3*%
X14760000Y-40640000D03*
%TO.P,C1,2*%
%TO.N,GND*%
X18260000Y-40640000D03*
%TD*%
D10*
%TO.P,RV1,1,1*%
%TO.N,+3V3*%
X31774178Y-13851846D03*
D11*
%TO.P,RV1,2,2*%
%TO.N,/POT8*%
X34274178Y-13851846D03*
%TO.P,RV1,3,3*%
%TO.N,GND*%
X36774178Y-13851846D03*
D12*
%TO.P,RV1,MP*%
X29874178Y-6851846D03*
X38674178Y-6851846D03*
%TD*%
D10*
%TO.P,RV10,1,1*%
%TO.N,+3V3*%
X91774178Y-43851846D03*
D11*
%TO.P,RV10,2,2*%
%TO.N,/POT3*%
X94274178Y-43851846D03*
%TO.P,RV10,3,3*%
%TO.N,GND*%
X96774178Y-43851846D03*
D12*
%TO.P,RV10,MP*%
X89874178Y-36851846D03*
X98674178Y-36851846D03*
%TD*%
D17*
%TO.N,GND*%
X36184271Y-31750000D03*
X67310000Y-31750000D03*
X127000000Y-31750000D03*
X96520000Y-31750000D03*
X121920000Y-31750000D03*
X91440000Y-31750000D03*
X60960000Y-31750000D03*
X32374271Y-34290000D03*
%TD*%
D18*
%TO.N,GND*%
X60960000Y-31750000D02*
X67310000Y-31750000D01*
X32374271Y-34290000D02*
X33644271Y-34290000D01*
X17780000Y-34290000D02*
X17780000Y-40160000D01*
X17780000Y-40160000D02*
X18260000Y-40640000D01*
X33644271Y-34290000D02*
X36184271Y-31750000D01*
X121920000Y-31750000D02*
X127000000Y-31750000D01*
X91440000Y-31750000D02*
X96520000Y-31750000D01*
%TO.N,+3V3*%
X31774178Y-31715093D02*
X31774178Y-13851846D01*
X33020000Y-40640000D02*
X31750000Y-41910000D01*
X13959271Y-41440729D02*
X14760000Y-40640000D01*
X61774178Y-41454178D02*
X60960000Y-40640000D01*
X31750000Y-2540000D02*
X33020000Y-3810000D01*
X92710000Y-3810000D02*
X91440000Y-2540000D01*
X33020000Y-40640000D02*
X24119271Y-40640000D01*
X91774178Y-43851846D02*
X91774178Y-42244178D01*
X31774178Y-41934178D02*
X31774178Y-43851846D01*
X121920000Y-2540000D02*
X123190000Y-3810000D01*
X29210000Y-2540000D02*
X31750000Y-2540000D01*
X120650000Y-40640000D02*
X60960000Y-40640000D01*
X30493449Y-32995822D02*
X31774178Y-31715093D01*
X13959271Y-41910000D02*
X13959271Y-41440729D01*
X24119271Y-40640000D02*
X21579271Y-43180000D01*
X31774178Y-11454178D02*
X31774178Y-13851846D01*
X92710000Y-10828356D02*
X92710000Y-3810000D01*
X62230000Y-2540000D02*
X91440000Y-2540000D01*
X121774178Y-43851846D02*
X121774178Y-41764178D01*
X61774178Y-11885822D02*
X61774178Y-13851846D01*
X63500000Y-3810000D02*
X63500000Y-10160000D01*
X21579271Y-43180000D02*
X15229271Y-43180000D01*
X25400000Y-6350000D02*
X29210000Y-2540000D01*
X33020000Y-3810000D02*
X33020000Y-10160000D01*
X31750000Y-11430000D02*
X31774178Y-11454178D01*
X16534178Y-32995822D02*
X15240000Y-34290000D01*
X91774178Y-13851846D02*
X91774178Y-11764178D01*
X31750000Y-41910000D02*
X31774178Y-41934178D01*
X121774178Y-41764178D02*
X120650000Y-40640000D01*
X123190000Y-3810000D02*
X123190000Y-10160000D01*
X91440000Y-2540000D02*
X121920000Y-2540000D01*
X121774178Y-11575822D02*
X121774178Y-13851846D01*
X15240000Y-40160000D02*
X14760000Y-40640000D01*
X123190000Y-10160000D02*
X121774178Y-11575822D01*
X91774178Y-42244178D02*
X90170000Y-40640000D01*
X33020000Y-10160000D02*
X31750000Y-11430000D01*
X60960000Y-40640000D02*
X33020000Y-40640000D01*
X61774178Y-43851846D02*
X61774178Y-41454178D01*
X15240000Y-34290000D02*
X15240000Y-40160000D01*
X15229271Y-43180000D02*
X13959271Y-41910000D01*
X63500000Y-10160000D02*
X61774178Y-11885822D01*
X62230000Y-2540000D02*
X63500000Y-3810000D01*
X30493449Y-32995822D02*
X16534178Y-32995822D01*
X91774178Y-11764178D02*
X92710000Y-10828356D01*
X31750000Y-2540000D02*
X62230000Y-2540000D01*
%TD*%
M02*
