M48
; DRILL file {KiCad (6.0.10-0)} date Sunday, 22 January 2023 at 02:08:00 PM
; FORMAT={-:-/ absolute / inch / decimal}
; #@! TF.CreationDate,2023-01-22T14:08:00+10:30
; #@! TF.GenerationSoftware,Kicad,Pcbnew,(6.0.10-0)
; #@! TF.FileFunction,Plated,1,2,PTH
FMAT,2
INCH
; #@! TA.AperFunction,Plated,PTH,ViaDrill
T1C0.0157
; #@! TA.AperFunction,Plated,PTH,ComponentDrill
T2C0.0197
; #@! TA.AperFunction,Plated,PTH,ComponentDrill
T3C0.0394
; #@! TA.AperFunction,Plated,PTH,ComponentDrill
T4C0.0433
; #@! TA.AperFunction,Plated,PTH,ComponentDrill
T5C0.0709
%
G90
G05
T1
X1.2746Y-1.35
X1.4246Y-1.25
X2.4Y-1.25
X2.65Y-1.25
X3.6Y-1.25
X3.8Y-1.25
X4.8Y-1.25
X5.0Y-1.25
T2
X0.7Y-0.3
X0.7Y-0.45
T3
X1.251Y-0.5453
X1.251Y-1.7265
X1.3494Y-0.5453
X1.3494Y-1.7265
X1.4478Y-0.5453
X1.4478Y-1.7265
X2.4321Y-0.5453
X2.4321Y-1.7265
X2.5305Y-0.5453
X2.5305Y-1.7265
X2.6289Y-0.5453
X2.6289Y-1.7265
X3.6132Y-0.5453
X3.6132Y-1.7265
X3.7116Y-0.5453
X3.7116Y-1.7265
X3.81Y-0.5453
X3.81Y-1.7265
X4.7943Y-0.5453
X4.7943Y-1.7265
X4.8927Y-0.5453
X4.8927Y-1.7265
X4.9911Y-0.5453
X4.9911Y-1.7265
T4
X0.4Y-0.05
X0.4Y-0.15
X0.4Y-0.25
X0.4Y-0.35
X0.4Y-0.45
X0.4Y-0.55
X0.4Y-0.65
X0.4Y-0.75
X0.4Y-0.85
X0.4Y-0.95
X0.4Y-1.05
X0.4Y-1.15
X0.4Y-1.25
X0.4Y-1.35
X0.5Y-1.35
X0.6Y-1.35
X0.7Y-1.35
X0.8Y-1.35
X0.9Y-0.15
X0.9Y-0.35
X0.9Y-0.45
X0.9Y-0.55
X0.9Y-1.35
X1.0Y-0.05
X1.0Y-0.15
X1.0Y-0.25
X1.0Y-0.35
X1.0Y-0.45
X1.0Y-0.55
X1.0Y-0.65
X1.0Y-0.75
X1.0Y-0.85
X1.0Y-0.95
X1.0Y-1.05
X1.0Y-1.15
X1.0Y-1.25
X1.0Y-1.35
T5
G00X1.1761Y-0.2757
M15
G01X1.1761Y-0.2639
M16
G05
G00X1.1761Y-1.4568
M15
G01X1.1761Y-1.445
M16
G05
G00X1.5226Y-0.2757
M15
G01X1.5226Y-0.2639
M16
G05
G00X1.5226Y-1.4568
M15
G01X1.5226Y-1.445
M16
G05
G00X2.3573Y-0.2757
M15
G01X2.3573Y-0.2639
M16
G05
G00X2.3573Y-1.4568
M15
G01X2.3573Y-1.445
M16
G05
G00X2.7037Y-0.2757
M15
G01X2.7037Y-0.2639
M16
G05
G00X2.7037Y-1.4568
M15
G01X2.7037Y-1.445
M16
G05
G00X3.5384Y-0.2757
M15
G01X3.5384Y-0.2639
M16
G05
G00X3.5384Y-1.4568
M15
G01X3.5384Y-1.445
M16
G05
G00X3.8848Y-0.2757
M15
G01X3.8848Y-0.2639
M16
G05
G00X3.8848Y-1.4568
M15
G01X3.8848Y-1.445
M16
G05
G00X4.7195Y-0.2757
M15
G01X4.7195Y-0.2639
M16
G05
G00X4.7195Y-1.4568
M15
G01X4.7195Y-1.445
M16
G05
G00X5.0659Y-0.2757
M15
G01X5.0659Y-0.2639
M16
G05
G00X5.0659Y-1.4568
M15
G01X5.0659Y-1.445
M16
G05
T0
M30
