%TF.GenerationSoftware,KiCad,Pcbnew,(6.0.10-0)*%
%TF.CreationDate,2023-01-22T14:07:56+10:30*%
%TF.ProjectId,16p,3136702e-6b69-4636-9164-5f7063625858,rev?*%
%TF.SameCoordinates,Original*%
%TF.FileFunction,Soldermask,Bot*%
%TF.FilePolarity,Negative*%
%FSLAX46Y46*%
G04 Gerber Fmt 4.6, Leading zero omitted, Abs format (unit mm)*
G04 Created by KiCad (PCBNEW (6.0.10-0)) date 2023-01-22 14:07:56*
%MOMM*%
%LPD*%
G01*
G04 APERTURE LIST*
G04 Aperture macros list*
%AMRoundRect*
0 Rectangle with rounded corners*
0 $1 Rounding radius*
0 $2 $3 $4 $5 $6 $7 $8 $9 X,Y pos of 4 corners*
0 Add a 4 corners polygon primitive as box body*
4,1,4,$2,$3,$4,$5,$6,$7,$8,$9,$2,$3,0*
0 Add four circle primitives for the rounded corners*
1,1,$1+$1,$2,$3*
1,1,$1+$1,$4,$5*
1,1,$1+$1,$6,$7*
1,1,$1+$1,$8,$9*
0 Add four rect primitives between the rounded corners*
20,1,$1+$1,$2,$3,$4,$5,0*
20,1,$1+$1,$4,$5,$6,$7,0*
20,1,$1+$1,$6,$7,$8,$9,0*
20,1,$1+$1,$8,$9,$2,$3,0*%
G04 Aperture macros list end*
%ADD10R,1.800000X1.800000*%
%ADD11C,1.800000*%
%ADD12RoundRect,0.750000X0.750000X-1.250000X0.750000X1.250000X-0.750000X1.250000X-0.750000X-1.250000X0*%
%ADD13R,1.600000X1.600000*%
%ADD14C,1.600000*%
%ADD15C,1.900000*%
%ADD16C,3.200000*%
%ADD17RoundRect,0.250000X-0.337500X-0.475000X0.337500X-0.475000X0.337500X0.475000X-0.337500X0.475000X0*%
%ADD18RoundRect,0.250000X0.337500X0.475000X-0.337500X0.475000X-0.337500X-0.475000X0.337500X-0.475000X0*%
G04 APERTURE END LIST*
D10*
%TO.C,RV13*%
X121774178Y-13851846D03*
D11*
X124274178Y-13851846D03*
X126774178Y-13851846D03*
D12*
X119874178Y-6851846D03*
X128674178Y-6851846D03*
%TD*%
D10*
%TO.C,RV14*%
X121774178Y-43851846D03*
D11*
X124274178Y-43851846D03*
X126774178Y-43851846D03*
D12*
X119874178Y-36851846D03*
X128674178Y-36851846D03*
%TD*%
D10*
%TO.C,RV9*%
X91774178Y-13851846D03*
D11*
X94274178Y-13851846D03*
X96774178Y-13851846D03*
D12*
X98674178Y-6851846D03*
X89874178Y-6851846D03*
%TD*%
D10*
%TO.C,RV2*%
X31774178Y-43851846D03*
D11*
X34274178Y-43851846D03*
X36774178Y-43851846D03*
D12*
X29874178Y-36851846D03*
X38674178Y-36851846D03*
%TD*%
D10*
%TO.C,RV6*%
X61774178Y-43851846D03*
D11*
X64274178Y-43851846D03*
X66774178Y-43851846D03*
D12*
X59874178Y-36851846D03*
X68674178Y-36851846D03*
%TD*%
D10*
%TO.C,RV5*%
X61774178Y-13851846D03*
D11*
X64274178Y-13851846D03*
X66774178Y-13851846D03*
D12*
X59874178Y-6851846D03*
X68674178Y-6851846D03*
%TD*%
D13*
%TO.C,U3*%
X10160000Y-1270000D03*
D14*
X10160000Y-3810000D03*
X10160000Y-6350000D03*
X10160000Y-8890000D03*
X10160000Y-11430000D03*
X10160000Y-13970000D03*
X10160000Y-16510000D03*
X10160000Y-19050000D03*
X10160000Y-21590000D03*
X10160000Y-24130000D03*
X10160000Y-26670000D03*
X10160000Y-29210000D03*
X10160000Y-31750000D03*
X10160000Y-34290000D03*
X12700000Y-34290000D03*
X15240000Y-34290000D03*
X17780000Y-34290000D03*
X20320000Y-34290000D03*
X22860000Y-34290000D03*
X25400000Y-34290000D03*
X25400000Y-31750000D03*
X25400000Y-29210000D03*
X25400000Y-26670000D03*
X25400000Y-24130000D03*
X25400000Y-21590000D03*
X25400000Y-19050000D03*
X25400000Y-16510000D03*
X25400000Y-13970000D03*
X25400000Y-11430000D03*
X25400000Y-8890000D03*
X25400000Y-6350000D03*
X25400000Y-3810000D03*
X25400000Y-1270000D03*
X22860000Y-3810000D03*
X22860000Y-8890000D03*
X22860000Y-11430000D03*
X22860000Y-13970000D03*
D15*
X17780000Y-11430000D03*
X17780000Y-7620000D03*
%TD*%
D16*
%TO.C,H4*%
X138430000Y-40640000D03*
%TD*%
%TO.C,H3*%
X5080000Y-40640000D03*
%TD*%
%TO.C,H2*%
X138430000Y-5080000D03*
%TD*%
D10*
%TO.C,RV1*%
X31774178Y-13851846D03*
D11*
X34274178Y-13851846D03*
X36774178Y-13851846D03*
D12*
X29874178Y-6851846D03*
X38674178Y-6851846D03*
%TD*%
D16*
%TO.C,H1*%
X5080000Y-5080000D03*
%TD*%
D10*
%TO.C,RV10*%
X91774178Y-43851846D03*
D11*
X94274178Y-43851846D03*
X96774178Y-43851846D03*
D12*
X89874178Y-36851846D03*
X98674178Y-36851846D03*
%TD*%
D17*
%TO.C,C17*%
X124460000Y-10785000D03*
X126535000Y-10785000D03*
%TD*%
%TO.C,C18*%
X124692500Y-40351846D03*
X126767500Y-40351846D03*
%TD*%
%TO.C,C5*%
X34252500Y-10785000D03*
X36327500Y-10785000D03*
%TD*%
%TO.C,C10*%
X64600004Y-40640000D03*
X66675004Y-40640000D03*
%TD*%
%TO.C,C9*%
X64182918Y-10280000D03*
X66257918Y-10280000D03*
%TD*%
%TO.C,C6*%
X34487178Y-40640000D03*
X36562178Y-40640000D03*
%TD*%
%TO.C,C13*%
X94390832Y-10785000D03*
X96465832Y-10785000D03*
%TD*%
D18*
%TO.C,C2*%
X18817500Y-1270000D03*
X16742500Y-1270000D03*
%TD*%
D17*
%TO.C,C14*%
X94212500Y-40640000D03*
X96287500Y-40640000D03*
%TD*%
M02*
