%TF.GenerationSoftware,KiCad,Pcbnew,(6.0.10-0)*%
%TF.CreationDate,2023-01-22T14:07:56+10:30*%
%TF.ProjectId,16p,3136702e-6b69-4636-9164-5f7063625858,rev?*%
%TF.SameCoordinates,Original*%
%TF.FileFunction,Legend,Bot*%
%TF.FilePolarity,Positive*%
%FSLAX46Y46*%
G04 Gerber Fmt 4.6, Leading zero omitted, Abs format (unit mm)*
G04 Created by KiCad (PCBNEW (6.0.10-0)) date 2023-01-22 14:07:56*
%MOMM*%
%LPD*%
G01*
G04 APERTURE LIST*
%ADD10C,0.150000*%
%ADD11C,0.120000*%
G04 APERTURE END LIST*
D10*
%TO.C,C17*%
X126140357Y-12822142D02*
X126187976Y-12869761D01*
X126330833Y-12917380D01*
X126426071Y-12917380D01*
X126568928Y-12869761D01*
X126664166Y-12774523D01*
X126711785Y-12679285D01*
X126759404Y-12488809D01*
X126759404Y-12345952D01*
X126711785Y-12155476D01*
X126664166Y-12060238D01*
X126568928Y-11965000D01*
X126426071Y-11917380D01*
X126330833Y-11917380D01*
X126187976Y-11965000D01*
X126140357Y-12012619D01*
X125187976Y-12917380D02*
X125759404Y-12917380D01*
X125473690Y-12917380D02*
X125473690Y-11917380D01*
X125568928Y-12060238D01*
X125664166Y-12155476D01*
X125759404Y-12203095D01*
X124854642Y-11917380D02*
X124187976Y-11917380D01*
X124616547Y-12917380D01*
%TO.C,C18*%
X126372857Y-42388988D02*
X126420476Y-42436607D01*
X126563333Y-42484226D01*
X126658571Y-42484226D01*
X126801428Y-42436607D01*
X126896666Y-42341369D01*
X126944285Y-42246131D01*
X126991904Y-42055655D01*
X126991904Y-41912798D01*
X126944285Y-41722322D01*
X126896666Y-41627084D01*
X126801428Y-41531846D01*
X126658571Y-41484226D01*
X126563333Y-41484226D01*
X126420476Y-41531846D01*
X126372857Y-41579465D01*
X125420476Y-42484226D02*
X125991904Y-42484226D01*
X125706190Y-42484226D02*
X125706190Y-41484226D01*
X125801428Y-41627084D01*
X125896666Y-41722322D01*
X125991904Y-41769941D01*
X124849047Y-41912798D02*
X124944285Y-41865179D01*
X124991904Y-41817560D01*
X125039523Y-41722322D01*
X125039523Y-41674703D01*
X124991904Y-41579465D01*
X124944285Y-41531846D01*
X124849047Y-41484226D01*
X124658571Y-41484226D01*
X124563333Y-41531846D01*
X124515714Y-41579465D01*
X124468095Y-41674703D01*
X124468095Y-41722322D01*
X124515714Y-41817560D01*
X124563333Y-41865179D01*
X124658571Y-41912798D01*
X124849047Y-41912798D01*
X124944285Y-41960417D01*
X124991904Y-42008036D01*
X125039523Y-42103274D01*
X125039523Y-42293750D01*
X124991904Y-42388988D01*
X124944285Y-42436607D01*
X124849047Y-42484226D01*
X124658571Y-42484226D01*
X124563333Y-42436607D01*
X124515714Y-42388988D01*
X124468095Y-42293750D01*
X124468095Y-42103274D01*
X124515714Y-42008036D01*
X124563333Y-41960417D01*
X124658571Y-41912798D01*
%TO.C,C5*%
X35456666Y-12822142D02*
X35504285Y-12869761D01*
X35647142Y-12917380D01*
X35742380Y-12917380D01*
X35885238Y-12869761D01*
X35980476Y-12774523D01*
X36028095Y-12679285D01*
X36075714Y-12488809D01*
X36075714Y-12345952D01*
X36028095Y-12155476D01*
X35980476Y-12060238D01*
X35885238Y-11965000D01*
X35742380Y-11917380D01*
X35647142Y-11917380D01*
X35504285Y-11965000D01*
X35456666Y-12012619D01*
X34551904Y-11917380D02*
X35028095Y-11917380D01*
X35075714Y-12393571D01*
X35028095Y-12345952D01*
X34932857Y-12298333D01*
X34694761Y-12298333D01*
X34599523Y-12345952D01*
X34551904Y-12393571D01*
X34504285Y-12488809D01*
X34504285Y-12726904D01*
X34551904Y-12822142D01*
X34599523Y-12869761D01*
X34694761Y-12917380D01*
X34932857Y-12917380D01*
X35028095Y-12869761D01*
X35075714Y-12822142D01*
%TO.C,C10*%
X66280361Y-42677142D02*
X66327980Y-42724761D01*
X66470837Y-42772380D01*
X66566075Y-42772380D01*
X66708932Y-42724761D01*
X66804170Y-42629523D01*
X66851789Y-42534285D01*
X66899408Y-42343809D01*
X66899408Y-42200952D01*
X66851789Y-42010476D01*
X66804170Y-41915238D01*
X66708932Y-41820000D01*
X66566075Y-41772380D01*
X66470837Y-41772380D01*
X66327980Y-41820000D01*
X66280361Y-41867619D01*
X65327980Y-42772380D02*
X65899408Y-42772380D01*
X65613694Y-42772380D02*
X65613694Y-41772380D01*
X65708932Y-41915238D01*
X65804170Y-42010476D01*
X65899408Y-42058095D01*
X64708932Y-41772380D02*
X64613694Y-41772380D01*
X64518456Y-41820000D01*
X64470837Y-41867619D01*
X64423218Y-41962857D01*
X64375599Y-42153333D01*
X64375599Y-42391428D01*
X64423218Y-42581904D01*
X64470837Y-42677142D01*
X64518456Y-42724761D01*
X64613694Y-42772380D01*
X64708932Y-42772380D01*
X64804170Y-42724761D01*
X64851789Y-42677142D01*
X64899408Y-42581904D01*
X64947027Y-42391428D01*
X64947027Y-42153333D01*
X64899408Y-41962857D01*
X64851789Y-41867619D01*
X64804170Y-41820000D01*
X64708932Y-41772380D01*
%TO.C,C9*%
X65387084Y-12317142D02*
X65434703Y-12364761D01*
X65577560Y-12412380D01*
X65672798Y-12412380D01*
X65815656Y-12364761D01*
X65910894Y-12269523D01*
X65958513Y-12174285D01*
X66006132Y-11983809D01*
X66006132Y-11840952D01*
X65958513Y-11650476D01*
X65910894Y-11555238D01*
X65815656Y-11460000D01*
X65672798Y-11412380D01*
X65577560Y-11412380D01*
X65434703Y-11460000D01*
X65387084Y-11507619D01*
X64910894Y-12412380D02*
X64720418Y-12412380D01*
X64625179Y-12364761D01*
X64577560Y-12317142D01*
X64482322Y-12174285D01*
X64434703Y-11983809D01*
X64434703Y-11602857D01*
X64482322Y-11507619D01*
X64529941Y-11460000D01*
X64625179Y-11412380D01*
X64815656Y-11412380D01*
X64910894Y-11460000D01*
X64958513Y-11507619D01*
X65006132Y-11602857D01*
X65006132Y-11840952D01*
X64958513Y-11936190D01*
X64910894Y-11983809D01*
X64815656Y-12031428D01*
X64625179Y-12031428D01*
X64529941Y-11983809D01*
X64482322Y-11936190D01*
X64434703Y-11840952D01*
%TO.C,C6*%
X35691344Y-42677142D02*
X35738963Y-42724761D01*
X35881820Y-42772380D01*
X35977058Y-42772380D01*
X36119916Y-42724761D01*
X36215154Y-42629523D01*
X36262773Y-42534285D01*
X36310392Y-42343809D01*
X36310392Y-42200952D01*
X36262773Y-42010476D01*
X36215154Y-41915238D01*
X36119916Y-41820000D01*
X35977058Y-41772380D01*
X35881820Y-41772380D01*
X35738963Y-41820000D01*
X35691344Y-41867619D01*
X34834201Y-41772380D02*
X35024678Y-41772380D01*
X35119916Y-41820000D01*
X35167535Y-41867619D01*
X35262773Y-42010476D01*
X35310392Y-42200952D01*
X35310392Y-42581904D01*
X35262773Y-42677142D01*
X35215154Y-42724761D01*
X35119916Y-42772380D01*
X34929439Y-42772380D01*
X34834201Y-42724761D01*
X34786582Y-42677142D01*
X34738963Y-42581904D01*
X34738963Y-42343809D01*
X34786582Y-42248571D01*
X34834201Y-42200952D01*
X34929439Y-42153333D01*
X35119916Y-42153333D01*
X35215154Y-42200952D01*
X35262773Y-42248571D01*
X35310392Y-42343809D01*
%TO.C,C13*%
X96071189Y-12822142D02*
X96118808Y-12869761D01*
X96261665Y-12917380D01*
X96356903Y-12917380D01*
X96499760Y-12869761D01*
X96594998Y-12774523D01*
X96642617Y-12679285D01*
X96690236Y-12488809D01*
X96690236Y-12345952D01*
X96642617Y-12155476D01*
X96594998Y-12060238D01*
X96499760Y-11965000D01*
X96356903Y-11917380D01*
X96261665Y-11917380D01*
X96118808Y-11965000D01*
X96071189Y-12012619D01*
X95118808Y-12917380D02*
X95690236Y-12917380D01*
X95404522Y-12917380D02*
X95404522Y-11917380D01*
X95499760Y-12060238D01*
X95594998Y-12155476D01*
X95690236Y-12203095D01*
X94785474Y-11917380D02*
X94166427Y-11917380D01*
X94499760Y-12298333D01*
X94356903Y-12298333D01*
X94261665Y-12345952D01*
X94214046Y-12393571D01*
X94166427Y-12488809D01*
X94166427Y-12726904D01*
X94214046Y-12822142D01*
X94261665Y-12869761D01*
X94356903Y-12917380D01*
X94642617Y-12917380D01*
X94737855Y-12869761D01*
X94785474Y-12822142D01*
%TO.C,C14*%
X95892857Y-42677142D02*
X95940476Y-42724761D01*
X96083333Y-42772380D01*
X96178571Y-42772380D01*
X96321428Y-42724761D01*
X96416666Y-42629523D01*
X96464285Y-42534285D01*
X96511904Y-42343809D01*
X96511904Y-42200952D01*
X96464285Y-42010476D01*
X96416666Y-41915238D01*
X96321428Y-41820000D01*
X96178571Y-41772380D01*
X96083333Y-41772380D01*
X95940476Y-41820000D01*
X95892857Y-41867619D01*
X94940476Y-42772380D02*
X95511904Y-42772380D01*
X95226190Y-42772380D02*
X95226190Y-41772380D01*
X95321428Y-41915238D01*
X95416666Y-42010476D01*
X95511904Y-42058095D01*
X94083333Y-42105714D02*
X94083333Y-42772380D01*
X94321428Y-41724761D02*
X94559523Y-42439047D01*
X93940476Y-42439047D01*
D11*
%TO.C,C17*%
X125236248Y-10050000D02*
X125758752Y-10050000D01*
X125236248Y-11520000D02*
X125758752Y-11520000D01*
%TO.C,C18*%
X125468748Y-39616846D02*
X125991252Y-39616846D01*
X125468748Y-41086846D02*
X125991252Y-41086846D01*
%TO.C,C5*%
X35028748Y-10050000D02*
X35551252Y-10050000D01*
X35028748Y-11520000D02*
X35551252Y-11520000D01*
%TO.C,C10*%
X65376252Y-39905000D02*
X65898756Y-39905000D01*
X65376252Y-41375000D02*
X65898756Y-41375000D01*
%TO.C,C9*%
X64959166Y-11015000D02*
X65481670Y-11015000D01*
X64959166Y-9545000D02*
X65481670Y-9545000D01*
%TO.C,C6*%
X35263426Y-41375000D02*
X35785930Y-41375000D01*
X35263426Y-39905000D02*
X35785930Y-39905000D01*
%TO.C,C13*%
X95167080Y-10050000D02*
X95689584Y-10050000D01*
X95167080Y-11520000D02*
X95689584Y-11520000D01*
%TO.C,C2*%
X18041252Y-2005000D02*
X17518748Y-2005000D01*
X18041252Y-535000D02*
X17518748Y-535000D01*
%TO.C,C14*%
X94988748Y-39905000D02*
X95511252Y-39905000D01*
X94988748Y-41375000D02*
X95511252Y-41375000D01*
%TD*%
M02*
